<!-- Generator: Adobe Illustrator 22.0.1, SVG Export Plug-In  -->
<svg version="1.1"
	 xmlns="http://www.w3.org/2000/svg" xmlns:xlink="http://www.w3.org/1999/xlink" xmlns:a="http://ns.adobe.com/AdobeSVGViewerExtensions/3.0/"
	 x="0px" y="0px" width="621.745px" height="194.301px" viewBox="0 0 621.745 194.301"
	 style="enable-background:new 0 0 621.745 194.301;" xml:space="preserve">
<style type="text/css">
	.st0{fill:#FFFFFF;}
	.st1{fill:#FFFFFF;stroke:#FFFFFF;stroke-width:1.1562;stroke-linecap:round;stroke-linejoin:round;}
	.st2{fill:url(#SVGID_1_);}
	.st3{fill:#060043;}
	.st4{fill:url(#SVGID_2_);}
	.st5{fill:url(#SVGID_3_);}
	.st6{fill:url(#SVGID_4_);}
	.st7{fill:url(#SVGID_5_);}
	.st8{fill:url(#SVGID_6_);}
	.st9{fill:url(#SVGID_7_);}
	.st10{fill:url(#SVGID_8_);}
	.st11{font-family:'Code-Bold';}
	.st12{font-size:52.3038px;}
	.st13{letter-spacing:2;}
	.st14{letter-spacing:1;}
	.st15{font-size:71.6399px;}
	.st16{letter-spacing:-1;}
	.st17{fill:url(#SVGID_9_);}
	.st18{fill:url(#SVGID_10_);}
	.st19{fill:url(#SVGID_11_);}
	.st20{fill:url(#SVGID_12_);}
	.st21{fill:url(#SVGID_13_);}
	.st22{fill:url(#SVGID_14_);}
	.st23{fill:url(#SVGID_15_);}
	.st24{fill:url(#SVGID_16_);}
</style>
<defs>
</defs>
<g>
	<path class="st0" d="M244.952,155.293v-31.437h-11.089v-5.336h27.409v5.336h-11.037v31.437H244.952z"/>
	<path class="st0" d="M270.894,149.853h17v5.283h-22.335v-36.562h22.283v5.283h-16.948v10.304h16.582v5.336h-16.582V149.853z"/>
	<path class="st0" d="M296.889,123.804c3.191-3.295,7.689-5.439,12.658-5.439c8.369,0,14.959,5.23,17.052,13.495h-5.23
		c-1.936-5.492-6.434-8.265-11.822-8.265c-3.504,0-6.695,1.517-8.997,3.923c-2.302,2.406-3.766,5.649-3.766,9.415
		c0,3.662,1.464,6.905,3.766,9.311c2.301,2.406,5.492,3.924,8.997,3.924c5.544,0,10.252-3.191,12.135-8.735h5.179
		c-2.093,8.316-8.788,13.966-17.314,13.966c-4.969,0-9.467-2.093-12.658-5.44c-3.139-3.348-5.231-7.95-5.231-13.024
		C291.658,131.755,293.75,127.152,296.889,123.804z"/>
	<path class="st0" d="M336.796,134.004h15.483v-15.431h5.335v36.562h-5.335v-15.901h-15.483v15.901h-5.283v-36.562h5.283V134.004z"
		/>
	<path class="st0" d="M363.104,155.136v-36.667l4.08,0.052l17.837,25.788v-25.788h5.23v36.615h-4.185l-17.68-25.578v25.578H363.104z
		"/>
	<path class="st0" d="M399.926,123.595c3.348-3.4,8.056-5.545,13.182-5.545c5.179,0,9.834,2.145,13.233,5.545
		c3.296,3.399,5.44,8.055,5.44,13.233s-2.145,9.834-5.44,13.233c-3.399,3.453-8.055,5.545-13.233,5.545
		c-5.126,0-9.834-2.092-13.182-5.545c-3.295-3.399-5.439-8.055-5.439-13.233S396.631,126.994,399.926,123.595z M422.576,127.361
		c-2.458-2.458-5.858-3.975-9.468-3.975s-6.957,1.517-9.363,3.975c-2.405,2.406-3.923,5.754-3.923,9.468s1.518,7.062,3.923,9.468
		c2.406,2.458,5.754,3.976,9.363,3.976s7.01-1.518,9.468-3.976c2.354-2.406,3.871-5.701,3.871-9.468
		C426.447,133.063,424.929,129.767,422.576,127.361z"/>
	<path class="st0" d="M442.711,149.853h17.209v5.283h-22.492v-36.562h5.283V149.853z"/>
	<path class="st0" d="M466.561,123.595c3.348-3.4,8.056-5.545,13.182-5.545c5.179,0,9.834,2.145,13.233,5.545
		c3.296,3.399,5.44,8.055,5.44,13.233s-2.145,9.834-5.44,13.233c-3.399,3.453-8.055,5.545-13.233,5.545
		c-5.126,0-9.834-2.092-13.182-5.545c-3.295-3.399-5.439-8.055-5.439-13.233S463.266,126.994,466.561,123.595z M489.21,127.361
		c-2.458-2.458-5.858-3.975-9.468-3.975s-6.957,1.517-9.363,3.975c-2.405,2.406-3.923,5.754-3.923,9.468s1.518,7.062,3.923,9.468
		c2.406,2.458,5.754,3.976,9.363,3.976s7.01-1.518,9.468-3.976c2.354-2.406,3.871-5.701,3.871-9.468
		C493.081,133.063,491.564,129.767,489.21,127.361z"/>
	<path class="st0" d="M532.884,131.65c-1.465-5.91-7.114-8.055-11.77-8.055c-7.166,0-12.71,5.597-12.71,13.286
		c0,7.741,5.544,13.442,12.71,13.442c4.499,0,9.311-2.092,11.508-7.428h-13.548v-5.282h19.72c-0.261,3.086-0.522,5.126-0.993,6.329
		v-0.053c-2.511,7.009-10.043,11.508-16.687,11.508c-10.252,0-17.993-7.741-17.993-18.517c0-10.828,7.898-18.569,17.993-18.569
		c7.01,0,15.483,3.609,17.419,13.338H532.884z"/>
	<path class="st0" d="M560.499,123.804h-6.8v26.049h6.8v5.283h-18.883v-5.283h6.8v-26.049h-6.8v-5.23h18.883V123.804z"/>
	<path class="st0" d="M570.07,149.853h17v5.283h-22.335v-36.562h22.282v5.283H570.07v10.304h16.581v5.336H570.07V149.853z"/>
	<path class="st0" d="M611.495,127.989c-0.732-3.295-4.289-4.708-7.48-4.655c-2.458,0.053-5.178,0.89-6.643,2.772
		c-0.732,0.941-0.994,2.145-0.89,3.399c0.262,3.767,4.395,4.237,8.317,4.604c5.021,0.628,11.246,1.936,12.658,7.794
		c0.157,0.784,0.262,1.674,0.262,2.406c0,7.061-7.01,11.141-13.6,11.141c-5.649,0-12.502-3.348-13.182-9.886l-0.053-0.994
		l5.336-0.104l0.052,0.785v-0.21c0.366,3.4,4.499,5.179,7.898,5.179c3.923,0,8.212-2.197,8.212-5.963
		c0-0.366-0.052-0.784-0.156-1.256c-0.628-2.771-4.395-3.242-8.056-3.608c-5.701-0.575-12.396-1.831-12.972-9.468v0.052
		c-0.21-2.458,0.418-4.916,1.987-6.956c2.458-3.191,6.853-4.865,11.089-4.865c5.649,0,11.508,2.93,12.449,9.625L611.495,127.989z"/>
</g>
<g>
	<path class="st1" d="M256.586,60.869c6.304,0,10.316,3.582,12.179,8.238c2.006,4.943,1.361,10.674-3.654,14.256
		c5.731,2.436,7.809,7.737,7.809,12.465c0,7.522-4.943,15.116-14.543,15.116h-22.639V60.869H256.586z M242.903,80.785h13.54
		c7.88,0,8.024-13.038,0.144-13.038h-13.684V80.785z M242.903,103.925h15.475c4.871,0,7.307-4.084,7.307-8.024
		s-2.436-7.952-7.307-7.952h-15.475V103.925z"/>
	<path class="st1" d="M286.459,85.513h8.453c6.09,0,9.099-4.37,9.099-8.74c0-4.298-3.009-8.668-9.099-8.668h-11.104v42.841h-7.164
		V60.798h18.268c10.89,0,16.334,8.023,16.334,15.976c0,7.092-4.37,13.827-12.967,15.331l15.833,18.841h-9.385l-18.268-21.994V85.513
		z"/>
	<path class="st1" d="M320.058,67.747c4.585-4.657,11.032-7.594,18.054-7.594c7.092,0,13.468,2.938,18.125,7.594
		c4.513,4.656,7.45,11.032,7.45,18.125c0,7.093-2.938,13.469-7.45,18.125c-4.657,4.729-11.033,7.594-18.125,7.594
		c-7.021,0-13.469-2.865-18.054-7.594c-4.513-4.656-7.45-11.032-7.45-18.125C312.608,78.779,315.545,72.403,320.058,67.747z
		 M351.078,72.905c-3.367-3.367-8.023-5.444-12.967-5.444s-9.528,2.078-12.824,5.444c-3.295,3.295-5.373,7.88-5.373,12.967
		s2.078,9.671,5.373,12.967c3.296,3.367,7.881,5.445,12.824,5.445s9.6-2.078,12.967-5.445c3.224-3.296,5.301-7.809,5.301-12.967
		C356.379,80.714,354.302,76.2,351.078,72.905z"/>
	<path class="st1" d="M397.285,96.188h-17.981c-1.935,4.585-4.441,10.603-6.018,14.758h-7.809l20.131-50.793h5.301l20.131,50.793
		h-7.737L397.285,96.188z M382.027,89.382h12.465l-6.161-17.695L382.027,89.382z"/>
	<path class="st1" d="M432.101,60.869c16.406,0,24.645,12.537,24.645,25.074s-8.238,25.002-24.645,25.002h-17.981V60.869H432.101z
		 M432.101,103.71c11.606,0,17.48-8.884,17.48-17.767s-5.874-17.838-17.48-17.838h-10.746v35.605H432.101z"/>
	<path class="st1" d="M486.476,87.09c-2.866,8.167-6.09,16.548-8.669,24.142h-5.086l-16.836-50.362h7.522l11.964,36.178
		l8.238-23.426h5.803l8.167,23.354c3.94-11.964,8.311-24.716,12.036-36.106h7.594l-16.836,50.362h-5.086L486.476,87.09z"/>
	<path class="st1" d="M527.167,103.71h23.283v7.235H519.86V60.869h30.519v7.235h-23.211v14.113h22.71v7.307h-22.71V103.71z"/>
	<path class="st1" d="M561.267,103.71h23.569v7.235h-30.805V60.869h7.235V103.71z"/>
	<path class="st1" d="M595.51,103.71h23.569v7.235h-30.805V60.869h7.235V103.71z"/>
</g>
<g>
	<linearGradient id="SVGID_1_" gradientUnits="userSpaceOnUse" x1="40.9098" y1="41.1693" x2="115.842" y2="41.1693">
		<stop  offset="0" style="stop-color:#0085CB"/>
		<stop  offset="0.6303" style="stop-color:#004FA2"/>
		<stop  offset="0.6937" style="stop-color:#00499B"/>
		<stop  offset="0.7882" style="stop-color:#023886"/>
		<stop  offset="0.9015" style="stop-color:#041D65"/>
		<stop  offset="1" style="stop-color:#060043"/>
	</linearGradient>
	<path class="st2" d="M83.275,63.866c-1.962,1.966-5.146,1.966-7.118,0l-33.772-21.67c-1.967-1.962-1.967-5.145,0-7.112
		L75.413,18.47c1.968-1.962,5.156-1.962,7.116,0l31.838,18.691c1.966,1.961,1.966,5.148,0,7.111L83.275,63.866z"/>
	<path class="st3" d="M79.769,111.558c-0.057,2.893,2.089,3.921,4.792,2.303l33.298-19.95c2.703-1.622,4.943-5.278,4.996-8.171
		l0.687-35.603c0.057-2.897-2.085-3.928-4.792-2.307L85.452,67.782c-2.703,1.621-4.942,5.275-4.996,8.168L79.769,111.558z"/>
	<linearGradient id="SVGID_2_" gradientUnits="userSpaceOnUse" x1="31.1284" y1="79.7411" x2="76.7997" y2="79.7411">
		<stop  offset="0.0048" style="stop-color:#2E3191"/>
		<stop  offset="0.2002" style="stop-color:#2A2C8A"/>
		<stop  offset="0.4914" style="stop-color:#202075"/>
		<stop  offset="0.8408" style="stop-color:#0F0B54"/>
		<stop  offset="1" style="stop-color:#060043"/>
	</linearGradient>
	<path class="st4" d="M76.798,110.525c0.062,2.896-2.178,3.933-5,2.31l-34.739-20c-2.816-1.624-5.153-5.291-5.21-8.192
		l-0.719-35.691c-0.057-2.895,2.183-3.927,5.001-2.305l34.738,19.999c2.821,1.622,5.152,5.291,5.21,8.187L76.798,110.525z"/>
	<linearGradient id="SVGID_3_" gradientUnits="userSpaceOnUse" x1="0" y1="99.7437" x2="165.8605" y2="99.7437">
		<stop  offset="0" style="stop-color:#71BE4E"/>
		<stop  offset="0.8364" style="stop-color:#008843"/>
	</linearGradient>
	<path class="st5" d="M76.737,106.369c-6.723-0.045-12.751-0.371-17.922-0.981c-13.102-1.544-20.751-4.887-20.503-9.98
		c0.026-0.565,0.137-1.116,0.288-1.659l-1.513-0.871c-2.821-1.623-5.153-5.292-5.216-8.192l-0.035-1.773
		C10.86,89.157-5.365,97.157,1.664,102.82c72.958,33.981,164.197-5.699,164.197-5.699
		C124.341,107.06,104.774,106.557,76.737,106.369z"/>
	<path class="st3" d="M128.908,191.161c-0.057,2.958,2.09,4.011,4.798,2.354l33.297-20.405c2.701-1.657,4.941-5.397,4.994-8.359
		l0.686-36.418c0.06-2.959-2.085-4.013-4.791-2.359l-33.296,20.409c-2.709,1.658-4.944,5.401-5.002,8.355L128.908,191.161z"/>
	<linearGradient id="SVGID_4_" gradientUnits="userSpaceOnUse" x1="81.1484" y1="160.4381" x2="126.8188" y2="160.4381">
		<stop  offset="0.0048" style="stop-color:#2E3191"/>
		<stop  offset="0.2002" style="stop-color:#2A2C8A"/>
		<stop  offset="0.4914" style="stop-color:#202075"/>
		<stop  offset="0.8408" style="stop-color:#0F0B54"/>
		<stop  offset="1" style="stop-color:#060043"/>
	</linearGradient>
	<path class="st6" d="M126.817,191.22c0.062,2.902-2.177,3.936-5,2.312l-34.734-19.995c-2.822-1.627-5.159-5.296-5.216-8.197
		l-0.718-35.692c-0.058-2.896,2.181-3.928,5.004-2.305l34.733,20c2.822,1.623,5.155,5.291,5.216,8.188L126.817,191.22z"/>
	<linearGradient id="SVGID_5_" gradientUnits="userSpaceOnUse" x1="130.982" y1="77.3043" x2="176.6542" y2="77.3043">
		<stop  offset="0.0048" style="stop-color:#2E3191"/>
		<stop  offset="0.2002" style="stop-color:#2A2C8A"/>
		<stop  offset="0.4914" style="stop-color:#202075"/>
		<stop  offset="0.8408" style="stop-color:#0F0B54"/>
		<stop  offset="1" style="stop-color:#060043"/>
	</linearGradient>
	<path class="st7" d="M176.653,108.088c0.062,2.897-2.178,3.933-4.999,2.311L136.914,90.4c-2.816-1.623-5.153-5.291-5.211-8.193
		l-0.72-35.691c-0.056-2.895,2.184-3.927,5.002-2.304l34.738,19.998c2.823,1.623,5.154,5.292,5.212,8.188L176.653,108.088z"/>
	<path class="st3" d="M179.437,107.498c-0.058,2.893,2.088,3.923,4.795,2.303l33.296-19.949c2.705-1.62,4.943-5.28,4.997-8.173
		l0.685-35.603c0.06-2.892-2.085-3.926-4.79-2.305l-33.298,19.953c-2.709,1.621-4.943,5.273-5.001,8.167L179.437,107.498z"/>
	<g>
		
			<linearGradient id="SVGID_6_" gradientUnits="userSpaceOnUse" x1="142.4276" y1="127.8895" x2="246.7064" y2="127.8895" gradientTransform="matrix(0.9916 0.1296 -0.1296 0.9916 12.2391 -98.9404)">
			<stop  offset="0.0048" style="stop-color:#F5D834"/>
			<stop  offset="0.1805" style="stop-color:#F4D134"/>
			<stop  offset="0.4426" style="stop-color:#F1BC34"/>
			<stop  offset="0.7568" style="stop-color:#ED9B34"/>
			<stop  offset="1" style="stop-color:#E97D34"/>
		</linearGradient>
		<path class="st8" d="M247.615,3.871c0.322-16.708-59.089,24.854-74.773,45.142c0,0,34.863-31.741,46.716-22.742
			c9.507,7.208-17.593,42.552-60.047,79.528l0.69,0.408c1.023,1.02,1.503,2.368,1.463,3.703C193.1,87.1,235.477,49.18,247.615,3.871
			z"/>
	</g>
	<linearGradient id="SVGID_7_" gradientUnits="userSpaceOnUse" x1="90.7453" y1="118.2165" x2="165.6778" y2="118.2165">
		<stop  offset="0" style="stop-color:#0085CB"/>
		<stop  offset="0.6303" style="stop-color:#004FA2"/>
		<stop  offset="0.6937" style="stop-color:#00499B"/>
		<stop  offset="0.7882" style="stop-color:#023886"/>
		<stop  offset="0.9015" style="stop-color:#041D65"/>
		<stop  offset="1" style="stop-color:#060043"/>
	</linearGradient>
	<path class="st9" d="M133.109,140.915c-1.962,1.966-5.15,1.966-7.115,0l-33.774-21.67c-1.965-1.966-1.965-5.149,0-7.116
		l33.029-16.609c1.966-1.968,5.154-1.968,7.116,0l31.835,18.687c1.971,1.964,1.971,5.149,0,7.115L133.109,140.915z"/>
	<linearGradient id="SVGID_8_" gradientUnits="userSpaceOnUse" x1="139.889" y1="38.5427" x2="214.8204" y2="38.5427">
		<stop  offset="0" style="stop-color:#0085CB"/>
		<stop  offset="0.6303" style="stop-color:#004FA2"/>
		<stop  offset="0.6937" style="stop-color:#00499B"/>
		<stop  offset="0.7882" style="stop-color:#023886"/>
		<stop  offset="0.9015" style="stop-color:#041D65"/>
		<stop  offset="1" style="stop-color:#060043"/>
	</linearGradient>
	<path class="st10" d="M182.253,61.242c-1.962,1.962-5.149,1.962-7.116,0l-33.772-21.67c-1.968-1.965-1.968-5.149,0-7.116
		l33.027-16.609c1.965-1.966,5.151-1.966,7.116,0l31.837,18.685c1.969,1.967,1.969,5.15,0,7.118L182.253,61.242z"/>
</g>
</svg>