<!-- Generator: Adobe Illustrator 22.0.1, SVG Export Plug-In  -->
<svg version="1.1"
	 xmlns="http://www.w3.org/2000/svg" xmlns:xlink="http://www.w3.org/1999/xlink" xmlns:a="http://ns.adobe.com/AdobeSVGViewerExtensions/3.0/"
	 x="0px" y="0px" width="6.717px" height="14.433px" viewBox="0 0 6.717 14.433" style="enable-background:new 0 0 6.717 14.433;"
	 xml:space="preserve">
<style type="text/css">
	.st0{fill:#747474;}
</style>
<defs>
</defs>
<g>
	<path class="st0" d="M1.775,14.433c0.004-0.049,0.01-0.099,0.01-0.148c0.001-2.287,0.001-4.574,0-6.861
		c0-0.056-0.005-0.112-0.009-0.19c-0.592,0-1.177,0-1.776,0c0-0.835,0-1.647,0-2.486c0.593,0,1.178,0,1.785,0
		c0-0.217-0.007-0.407,0.001-0.596C1.816,3.45,1.789,2.739,1.898,2.05C2.09,0.842,2.725,0.225,3.942,0.091
		C4.847-0.008,5.768,0.026,6.696,0c0,0.854,0,1.667,0,2.505c-0.327,0-0.645-0.007-0.962,0.002C5.486,2.514,5.237,2.525,4.992,2.561
		C4.714,2.601,4.53,2.785,4.519,3.06C4.497,3.612,4.513,4.165,4.513,4.744c0.724,0,1.452,0,2.205,0
		C6.629,5.58,6.544,6.388,6.457,7.22c-0.647,0-1.289,0-1.944,0c-0.008,0.076-0.019,0.13-0.019,0.183
		c-0.002,2.294-0.003,4.588-0.003,6.882c0,0.049,0.009,0.098,0.013,0.148C3.594,14.433,2.685,14.433,1.775,14.433z"/>
</g>
</svg>