<!-- Generator: Adobe Illustrator 22.0.1, SVG Export Plug-In  -->
<svg version="1.1"
	 xmlns="http://www.w3.org/2000/svg" xmlns:xlink="http://www.w3.org/1999/xlink" xmlns:a="http://ns.adobe.com/AdobeSVGViewerExtensions/3.0/"
	 x="0px" y="0px" width="13.168px" height="10.751px" viewBox="0 0 13.168 10.751"
	 style="enable-background:new 0 0 13.168 10.751;" xml:space="preserve">
<style type="text/css">
	.st0{fill:#747474;}
</style>
<defs>
</defs>
<g>
	<path class="st0" d="M3.931,8.423C2.518,8.352,1.645,7.291,1.457,6.53c0.388,0.06,0.769,0.053,1.147-0.053
		C1.77,6.258,1.148,5.774,0.761,5.004C0.572,4.629,0.483,4.227,0.492,3.788C0.871,3.975,1.251,4.104,1.7,4.111
		c-0.59-0.428-0.97-0.968-1.121-1.653C0.428,1.774,0.527,1.123,0.874,0.502c1.47,1.725,3.322,2.676,5.589,2.833
		c-0.018-0.168-0.04-0.316-0.048-0.466C6.37,2.039,6.645,1.329,7.243,0.757C7.929,0.1,8.756-0.117,9.68,0.058
		c0.519,0.098,0.972,0.346,1.345,0.727c0.049,0.049,0.093,0.067,0.167,0.05c0.543-0.121,1.057-0.317,1.542-0.589
		c0.018-0.01,0.037-0.018,0.083-0.04c-0.21,0.633-0.59,1.1-1.121,1.452c0.003,0.009,0.005,0.019,0.008,0.028
		c0.162-0.029,0.325-0.051,0.485-0.088c0.164-0.038,0.327-0.085,0.488-0.136c0.16-0.051,0.316-0.112,0.491-0.152
		c-0.124,0.158-0.244,0.318-0.372,0.473c-0.264,0.318-0.568,0.595-0.895,0.847c-0.036,0.028-0.062,0.094-0.061,0.142
		c0.014,0.623-0.037,1.239-0.17,1.847c-0.155,0.708-0.399,1.385-0.732,2.029c-0.25,0.483-0.545,0.936-0.888,1.358
		C9.717,8.413,9.348,8.784,8.937,9.114C8.595,9.387,8.234,9.631,7.85,9.839c-0.538,0.292-1.103,0.51-1.695,0.663
		c-0.865,0.224-1.742,0.287-2.63,0.226c-0.653-0.044-1.288-0.18-1.908-0.393c-0.531-0.182-1.036-0.419-1.515-0.712
		C0.067,9.602,0.033,9.58,0,9.55C1.458,9.676,2.772,9.317,3.931,8.423z"/>
</g>
</svg>