<!-- Generator: Adobe Illustrator 22.0.1, SVG Export Plug-In  -->
<svg version="1.1"
	 xmlns="http://www.w3.org/2000/svg" xmlns:xlink="http://www.w3.org/1999/xlink" xmlns:a="http://ns.adobe.com/AdobeSVGViewerExtensions/3.0/"
	 x="0px" y="0px" width="14.632px" height="13.992px" viewBox="0 0 14.632 13.992"
	 style="enable-background:new 0 0 14.632 13.992;" xml:space="preserve">
<style type="text/css">
	.st0{fill:#747474;}
</style>
<defs>
</defs>
<g>
	<path class="st0" d="M5.069,13.989c0-3.153,0-6.286,0-9.437c0.042,0,0.084,0,0.127,0c0.955,0,1.91,0.002,2.865-0.002
		c0.108,0,0.144,0.026,0.141,0.139C8.194,5.033,8.199,5.377,8.199,5.72c0,0.038,0.003,0.076,0.006,0.141
		c0.093-0.124,0.169-0.229,0.249-0.331C9.107,4.694,9.98,4.33,11.025,4.334c0.705,0.003,1.371,0.151,1.972,0.534
		c0.571,0.364,0.968,0.874,1.232,1.491c0.276,0.645,0.394,1.325,0.397,2.02c0.01,1.842,0.005,3.685,0.005,5.527
		c0,0.023-0.004,0.046-0.007,0.076c-1.041,0-2.078,0-3.132,0c0-0.057,0-0.108,0-0.158c-0.001-1.678,0.001-3.357-0.006-5.035
		c-0.002-0.418-0.068-0.827-0.256-1.208c-0.275-0.557-0.788-0.793-1.389-0.767C9.412,6.833,9.04,6.983,8.738,7.29
		C8.429,7.605,8.228,7.973,8.21,8.425C8.203,8.6,8.2,8.776,8.2,8.952c-0.001,1.631-0.002,3.261,0.002,4.892
		c0,0.112-0.026,0.149-0.144,0.149c-0.955-0.005-1.91-0.003-2.865-0.003C5.153,13.989,5.114,13.989,5.069,13.989z"/>
	<path class="st0" d="M3.315,13.984c-1.045,0-2.074,0-3.117,0c-0.003-0.047-0.008-0.089-0.008-0.131c0-3.053,0-6.107-0.002-9.16
		c0-0.106,0.022-0.143,0.138-0.143c0.955,0.005,1.91,0.003,2.865,0.003c0.039,0,0.078,0.003,0.124,0.006
		C3.315,7.703,3.315,10.838,3.315,13.984z"/>
	<path class="st0" d="M1.752,3.268c-0.618-0.011-1.146-0.209-1.495-0.75C-0.275,1.695,0.019,0.44,1.138,0.106
		C1.741-0.074,2.33-0.04,2.859,0.325C3.387,0.69,3.587,1.227,3.514,1.851C3.441,2.48,3.086,2.918,2.49,3.135
		C2.257,3.219,2.003,3.245,1.759,3.298C1.757,3.288,1.754,3.278,1.752,3.268z"/>
</g>
</svg>